<svg width="256" height="256" viewBox="0 0 256 256" fill="none" xmlns="http://www.w3.org/2000/svg">
  <path d="M124 90C91 90 66 70 66 39C98 38 121 55 128 84L124 90Z" fill="#9AF36E"/>
  <path d="M132 90C165 90 190 70 190 39C158 38 135 55 128 84L132 90Z" fill="#72C94B"/>
  <path d="M128 89V157" stroke="#111111" stroke-width="18" stroke-linecap="round"/>
  <path d="M126 125C116 145 96 153 75 166C65 172 57 180 51 191" stroke="#111111" stroke-width="17" stroke-linecap="round" stroke-linejoin="round"/>
  <path d="M130 125C140 145 160 153 181 166C191 172 199 180 205 191" stroke="#111111" stroke-width="17" stroke-linecap="round" stroke-linejoin="round"/>
  <path d="M116 151C104 168 98 186 99 211" stroke="#111111" stroke-width="16" stroke-linecap="round"/>
  <path d="M140 151C152 168 158 186 157 211" stroke="#111111" stroke-width="16" stroke-linecap="round"/>
  <path d="M128 156C128 178 128 200 128 224" stroke="#111111" stroke-width="17" stroke-linecap="round"/>
</svg>
